<mxfile host="www.draw.io" modified="2020-02-18T06:23:15.619Z" agent="Mozilla/5.0 (X11; Linux x86_64) AppleWebKit/537.36 (KHTML, like Gecko) Chrome/80.0.3987.87 Safari/537.36" etag="PYf1XesfK9jo1-xJ4crB" version="12.7.1" type="github">
  <diagram id="Nj-YVnwfBjjyll4lwzhB" name="페이지-1">
    <mxGraphModel dx="1422" dy="739" grid="1" gridSize="10" guides="1" tooltips="1" connect="1" arrows="1" fold="1" page="1" pageScale="1" pageWidth="1169" pageHeight="827" math="0" shadow="0">
      <root>
        <mxCell id="0" />
        <mxCell id="1" parent="0" />
        <mxCell id="VzKwgYMzW0R_RMzytXaH-1" value="DHS" style="rounded=0;whiteSpace=wrap;html=1;" vertex="1" parent="1">
          <mxGeometry x="270" y="320" width="120" height="60" as="geometry" />
        </mxCell>
        <mxCell id="VzKwgYMzW0R_RMzytXaH-2" value="MMS" style="rounded=0;whiteSpace=wrap;html=1;" vertex="1" parent="1">
          <mxGeometry x="570" y="320" width="120" height="60" as="geometry" />
        </mxCell>
        <mxCell id="VzKwgYMzW0R_RMzytXaH-3" value="Actor" style="shape=umlActor;verticalLabelPosition=bottom;labelBackgroundColor=#ffffff;verticalAlign=top;html=1;outlineConnect=0;" vertex="1" parent="1">
          <mxGeometry x="120" y="320" width="30" height="60" as="geometry" />
        </mxCell>
        <mxCell id="VzKwgYMzW0R_RMzytXaH-6" value="" style="endArrow=classic;html=1;exitX=0;exitY=0.5;exitDx=0;exitDy=0;entryX=1;entryY=0.5;entryDx=0;entryDy=0;" edge="1" parent="1" source="VzKwgYMzW0R_RMzytXaH-2" target="VzKwgYMzW0R_RMzytXaH-1">
          <mxGeometry width="50" height="50" relative="1" as="geometry">
            <mxPoint x="120" y="470" as="sourcePoint" />
            <mxPoint x="170" y="420" as="targetPoint" />
          </mxGeometry>
        </mxCell>
        <mxCell id="VzKwgYMzW0R_RMzytXaH-7" value="(gRpc)&lt;br&gt;Spark View List&lt;br&gt;&lt;br&gt;schema&lt;br&gt;data" style="text;html=1;strokeColor=none;fillColor=none;align=center;verticalAlign=middle;whiteSpace=wrap;rounded=0;" vertex="1" parent="1">
          <mxGeometry x="440" y="340" width="90" height="20" as="geometry" />
        </mxCell>
        <mxCell id="VzKwgYMzW0R_RMzytXaH-8" value="" style="endArrow=classic;startArrow=classic;html=1;exitX=0.5;exitY=0.5;exitDx=0;exitDy=0;exitPerimeter=0;entryX=0;entryY=0.5;entryDx=0;entryDy=0;" edge="1" parent="1" source="VzKwgYMzW0R_RMzytXaH-3" target="VzKwgYMzW0R_RMzytXaH-1">
          <mxGeometry width="50" height="50" relative="1" as="geometry">
            <mxPoint x="230" y="280" as="sourcePoint" />
            <mxPoint x="280" y="230" as="targetPoint" />
          </mxGeometry>
        </mxCell>
        <mxCell id="VzKwgYMzW0R_RMzytXaH-9" value="DHS DB" style="shape=cylinder;whiteSpace=wrap;html=1;boundedLbl=1;backgroundOutline=1;" vertex="1" parent="1">
          <mxGeometry x="280" y="420" width="100" height="60" as="geometry" />
        </mxCell>
        <mxCell id="VzKwgYMzW0R_RMzytXaH-11" value="" style="endArrow=classic;startArrow=classic;html=1;entryX=0.5;entryY=1;entryDx=0;entryDy=0;" edge="1" parent="1" source="VzKwgYMzW0R_RMzytXaH-9" target="VzKwgYMzW0R_RMzytXaH-1">
          <mxGeometry width="50" height="50" relative="1" as="geometry">
            <mxPoint x="130" y="520" as="sourcePoint" />
            <mxPoint x="180" y="470" as="targetPoint" />
          </mxGeometry>
        </mxCell>
      </root>
    </mxGraphModel>
  </diagram>
</mxfile>
